<mxfile host="app.diagrams.net" modified="2023-08-08T03:17:02.244Z" agent="Mozilla/5.0 (Windows NT 10.0; Win64; x64) AppleWebKit/537.36 (KHTML, like Gecko) Chrome/115.0.0.0 Safari/537.36 Edg/115.0.1901.188" etag="nTlIp2jV-_iGxQdnKTdz" version="21.3.2" type="github">
  <diagram name="Page-1" id="_Ho3XsI3H59w44aN3OCp">
    <mxGraphModel dx="1501" dy="643" grid="0" gridSize="10" guides="1" tooltips="1" connect="1" arrows="1" fold="1" page="1" pageScale="1" pageWidth="850" pageHeight="1100" math="0" shadow="0">
      <root>
        <mxCell id="0" />
        <mxCell id="1" parent="0" />
      </root>
    </mxGraphModel>
  </diagram>
</mxfile>
